<?xml version="1.0" standalone="no"?><svg width="659.0002603488165" height="718.908745197632" xmlns="http://www.w3.org/2000/svg" xmlns:xlink="http://www.w3.org/1999/xlink"><style>line.bg { stroke: rgba(3, 148, 172, 0.7); stroke-width: 1; }circle.bg { fill: rgba(100, 220, 240, 0.7); }line.bg-sub { stroke: rgba(140, 240, 240, 0.5); stroke-width: 1; }g.u rect, g.u path, g.u circle { fill: none; stroke-width: 2; stroke-linejoin: round; }pattern line { vector-effect: non-scaling-stroke; }.zoomed-out pattern line { vector-effect: none; }text { stroke-width: 0; font-family: sans-serif; }text tspan { white-space: pre; }.ui-dark { background: rgb(51, 51, 51); }.ui-dark line.bg { stroke: rgba(172, 232, 242, 0.57); stroke-width: 1; }.ui-dark circle.bg { fill: rgba(100, 220, 240, 0.3); }.ui-dark line.bg-sub { stroke: rgba(140, 240, 240, 0.1); stroke-width: 1; }rect.marquee { fill: rgba(234, 255, 231, 0.3); stroke: rgb(98, 137, 95); stroke-width: 1; stroke-dasharray: 4; vector-effect: non-scaling-stroke; }rect.highlight { fill: blue; opacity: 0.5; }.bg rect { stroke: rgba(3, 148, 172, 0.7); stroke-width: 1; }</style><defs class="ic"></defs><defs><marker id="arrowhead" viewBox="0 0 15 15" refX="5" refY="5" markerWidth="5" markerHeight="5" orient="auto-start-reverse"><path stroke="context-stroke" fill="context-stroke" d="M 0 0 L 10 5 L 0 10 z"></path></marker></defs><g transform="translate(-120.00000015209116, 480)"><defs xmlns="http://www.w3.org/2000/svg"><pattern id="pattern_bg" viewBox="0 0 60 60" width="0.041666666666666664" height="0.07380073800738007" patternTransform="scale(0.34175854425275437 0.34175854425275437) translate(1829.6086912268217 1504.7789587758577)"><line class="bg" x1="0" y1="0" x2="60" y2="0"/><line class="bg" x1="0" y1="0" y2="60" x2="0"/><line class="bg-sub" x1="0" y1="15" x2="60" y2="15"/><line class="bg-sub" y1="0" x1="15" y2="60" x2="15"/><line class="bg-sub" x1="0" y1="30" x2="60" y2="30"/><line class="bg-sub" y1="0" x1="30" y2="60" x2="30"/><line class="bg-sub" x1="0" y1="45" x2="60" y2="45"/><line class="bg-sub" y1="0" x1="45" y2="60" x2="45"/></pattern></defs><g xmlns="http://www.w3.org/2000/svg" class="bg" style="visibility: hidden;"><rect x="-1829.6086912268217" y="-1504.7789587758577" width="4213.501093728381" height="2378.8724925008155" style="fill: url(&quot;#pattern_bg&quot;);"/></g><g xmlns="http://www.w3.org/2000/svg" class="u" data-layer="Layer 2" style="visibility: visible;" opacity="1"><rect x="240" y="300" class="" id="79ck458a" style="stroke: rgb(0, 0, 0); fill: rgb(0, 0, 0); stroke-width: 2; stroke-linejoin: round;" width="540" height="480" rx="80" ry="80" data-mut="" transform="translate(-15 2.55324e-7) matrix(1.22037 0 0 1.49773 -157.889 -929.318)"/></g><g xmlns="http://www.w3.org/2000/svg" class="u current" data-layer="Layer 1" style="visibility: visible;" opacity="1"><path d="M 240 30 L 240 -270 L 420 -90 L 390 -60 L 285 -165 L 285 30" class="" stroke="rgba(0, 0, 0, 1)" id="x11dfbxr" style="fill: rgb(255, 255, 255); stroke-width: 2; stroke-linejoin: round; stroke: rgb(255, 255, 255);" data-mut="" transform="translate(0 0) matrix(1 0 0 1 0 45)"/><path d="M 240 -330 L 450 -120 L 660 -330 L 600 -330 L 450 -180 L 300 -330" class="" stroke="rgba(0, 0, 0, 1)" id="fpy81h0x" style="fill: rgb(255, 255, 255); stroke-width: 2; stroke-linejoin: round; stroke: rgb(255, 255, 255);" data-mut="" transform="translate(0 0) matrix(1 0 0 1 0 30)"/><path d="M 660 -270 L 660 30 L 615 30 L 615 -225" class="" stroke="rgba(0, 0, 0, 1)" id="b7kt6fwv" style="fill: rgb(255, 255, 255); stroke-width: 2; stroke-linejoin: round; stroke: rgb(255, 255, 255);" data-mut="" transform="translate(0 0) matrix(1 0 0 1 0 45)"/></g></g></svg>